<?xml version="1.0" encoding="UTF-8" standalone="no"?>
<!-- Created with Inkscape (http://www.inkscape.org/) -->

<svg
   width="189.21478mm"
   height="189.7572mm"
   viewBox="0 0 189.21478 189.7572"
   version="1.1"
   id="svg5"
   xml:space="preserve"
   xmlns:inkscape="http://www.inkscape.org/namespaces/inkscape"
   xmlns:sodipodi="http://sodipodi.sourceforge.net/DTD/sodipodi-0.dtd"
   xmlns="http://www.w3.org/2000/svg"
   xmlns:svg="http://www.w3.org/2000/svg"><sodipodi:namedview
     id="namedview7"
     pagecolor="#505050"
     bordercolor="#ffffff"
     borderopacity="1"
     inkscape:showpageshadow="0"
     inkscape:pageopacity="0"
     inkscape:pagecheckerboard="1"
     inkscape:deskcolor="#505050"
     inkscape:document-units="mm"
     showgrid="false" /><defs
     id="defs2" /><g
     inkscape:label="Layer 1"
     inkscape:groupmode="layer"
     id="layer1"
     transform="translate(-11.072024,-70.788633)"><path
       style="fill:#ffffff;stroke-width:0.268998"
       d="m 53.931419,260.35377 c -0.74011,-0.17841 -11.85572,-11.28686 -12.36094,-12.35298 l -0.40788,-0.86069 v -26.029 -26.029 l 0.43732,-0.92284 c 0.24053,-0.50755 0.75464,-1.16955 1.14248,-1.47109 0.38783,-0.30154 2.98043,-2.81171 5.76134,-5.57814 l 5.05619,-5.02989 h 1.83973 1.83973 l 0.84207,0.88235 c 2.61525,2.74028 2.16398,3.81838 -4.24309,10.13677 l -4.61125,4.54744 v 23.43823 23.43823 l 3.96169,3.97364 3.96169,3.97365 h 48.528221 48.52823 l 3.95799,-3.97039 3.95798,-3.97039 0.0709,-35.31533 0.0709,-35.31532 5.64516,-5.68738 c 3.10484,-3.12806 5.97181,-5.85999 6.37106,-6.07095 l 0.72589,-0.38356 h 5.52411 c 3.03825,0 5.5241,-0.0875 5.5241,-0.19442 0,-0.27331 -5.90611,-6.24022 -45.49731,-45.96571 L 105.67872,80.599663 70.670639,115.72752 c -40.75154,40.89096 -45.36976,45.55588 -45.3689,45.82773 3.5e-4,0.11103 2.51405,0.20188 5.58599,0.20188 h 5.58535 l 0.66465,0.44089 c 0.36556,0.24248 2.4486,2.20902 4.62898,4.37007 l 3.96434,3.92918 2.8233,-2.81748 2.8233,-2.81748 v -5.05007 -5.05007 l 0.45781,-1.05815 0.45781,-1.05814 1.11733,-0.55878 c 1.41546,-0.70786 2.58316,-0.70786 3.99862,0 l 1.11734,0.55878 0.4578,1.05814 0.45781,1.05815 v 6.30633 c 0,7.80337 0.43036,6.81139 -5.58057,12.86301 -5.36585,5.40216 -5.99832,5.86061 -8.08503,5.86061 -2.15237,0 -2.60591,-0.31513 -7.58042,-5.26716 l -4.71377,-4.69246 h -9.82981 -9.82982 l -0.88609,-0.60565 c -1.60536,-1.09728 -2.27773,-3.16118 -1.60611,-4.93006 0.27526,-0.72498 91.110261,-92.161611 92.437081,-93.049324 0.9144,-0.611786 2.90779,-0.611786 3.82219,0 1.32682,0.887713 92.16182,92.324344 92.43708,93.049324 0.40171,1.058 0.33858,2.15602 -0.19484,3.38894 l -0.47033,1.08708 -1.09304,0.52984 -1.09304,0.52985 h -9.66323 -9.66323 l -3.82916,3.84117 -3.82916,3.84116 0.006,34.75799 0.006,34.75799 -0.29012,0.76828 c -0.371,0.98244 -11.10171,11.79456 -12.24485,12.33775 l -0.86069,0.40898 -51.16905,-0.0312 c -28.142981,-0.0172 -51.410981,-0.0896 -51.706681,-0.16083 z m 35.457,-21.85254 c -0.57662,-0.4287 -2.98247,-2.73018 -5.34633,-5.1144 -2.36385,-2.38422 -4.42911,-4.33495 -4.58944,-4.33495 -0.16034,0 -0.5549,-0.52807 -0.87681,-1.17349 l -0.58528,-1.1735 v -16.49325 -16.49325 l 0.55118,-0.89304 c 0.30315,-0.49117 0.95251,-1.1414 1.44302,-1.44496 l 0.89184,-0.55193 h 6.26888 6.26889 l 6.602611,6.5956 6.6026,6.59561 0.13441,3.96967 0.13441,3.96967 4.7043,0.14799 4.7043,0.14798 0.72502,0.39008 c 1.61935,0.87126 2.24801,3.52572 1.29961,5.48749 l -0.52913,1.09451 -1.1215,0.48653 -1.1215,0.48652 -7.32905,-0.0829 -7.32905,-0.0829 -0.84164,-0.88234 c -1.256891,-1.31765 -1.360281,-1.84037 -1.360281,-6.87714 v -4.62887 l -4.37125,-4.3711 -4.37124,-4.3711 h -1.94596 -1.94596 l 0.002,12.58412 0.002,12.58412 3.57261,3.56662 3.5726,3.56662 h 14.373271 14.37327 l 2.8852,-2.89807 2.88541,-2.89807 v -9.79842 -9.79843 l -3.83064,-3.9207 c -2.10686,-2.15639 -13.04864,-13.18927 -24.315081,-24.51751 -11.39464,-11.45714 -20.60944,-20.93305 -20.76613,-21.35456 -0.17927,-0.48224 -0.28169,-4.71836 -0.28169,-11.65064 v -10.89287 l 0.37153,-0.86618 c 0.43769,-1.02043 10.52837,-11.14892 11.79105,-11.83523 l 0.86667,-0.47107 h 13.046021 13.04602 l 0.87331,0.47107 c 1.26177,0.68059 12.42055,11.88402 12.86048,12.91194 l 0.37072,0.86619 v 16.09629 16.09629 l -0.49774,0.93793 c -0.27376,0.51586 -0.89649,1.21047 -1.38384,1.54358 l -0.8861,0.60565 -5.5382,-0.0121 -5.5382,-0.0121 -0.74644,-0.32433 c -1.01023,-0.43892 -13.51078,-12.97669 -14.02941,-14.07108 l -0.41243,-0.8703 v -4.89845 -4.89845 l 0.43637,-0.92081 c 0.24,-0.50645 0.8146,-1.19097 1.27688,-1.52116 l 0.84052,-0.60036 h 1.47849 1.4785 l 0.84051,0.60036 c 0.46229,0.33019 1.03688,1.01471 1.27688,1.52116 l 0.43637,0.92081 v 3.59597 3.59596 l 4.90857,4.90979 4.90857,4.90979 h 1.54304 1.54305 V 149.466 137.17487 l -4.36043,-4.39797 -4.36042,-4.39797 h -10.3608 -10.360791 l -3.82716,3.83917 -3.82717,3.83917 v 8.39669 8.39668 l 24.186481,24.30519 c 13.30256,13.36786 24.37111,24.6869 24.59677,25.15342 l 0.41029,0.84822 v 12.43546 12.43546 l -0.41011,0.86542 c -0.53798,1.13523 -9.18061,9.72742 -10.15846,10.09918 l -0.75675,0.28769 H 107.44847 90.436409 Z M 174.51883,129.10732 c -0.89389,-0.42948 -11.33629,-11.03404 -11.91806,-12.10314 l -0.47043,-0.86449 V 100.91676 85.693826 l -1.35359,-1.335776 -1.3536,-1.335776 -3.20877,-0.08967 -3.20877,-0.08967 -1.48602,1.407312 -1.48603,1.407313 v 7.264308 7.264313 l -0.55118,0.89303 c -1.06645,1.72787 -3.5467,2.53848 -5.17886,1.69258 -0.86426,-0.44793 -11.23763,-10.702676 -11.94331,-11.806732 -1.854,-2.900657 0.83447,-6.4707 4.37236,-5.806094 l 0.96534,0.181342 1.96518,1.869244 c 2.46743,2.346975 2.30596,2.439447 2.30596,-1.320518 v -3.18976 l 0.77222,-1.049809 c 4.24454,-5.770326 6.41852,-6.877494 13.44548,-6.847568 l 5.75762,0.02452 0.85785,0.407626 c 1.11053,0.527691 6.73935,6.237291 7.10911,7.211131 l 0.28352,0.746728 v 15.261642 15.261638 l 4.19476,4.16902 c 2.30712,2.29296 4.54502,4.64143 4.97312,5.21883 l 0.77836,1.0498 v 1.20644 c 0,2.918 -3.07848,4.97025 -5.62226,3.74804 z"
       id="path2492"
       inkscape:export-filename="Black on Clear.svg"
       inkscape:export-xdpi="96"
       inkscape:export-ydpi="96" /></g></svg>
